<?xml version="1.0" encoding="utf-8"?>
<!-- Generator: Adobe Illustrator 25.0.0, SVG Export Plug-In . SVG Version: 6.00 Build 0)  -->
<svg version="1.1" id="Layer_1" xmlns="http://www.w3.org/2000/svg" xmlns:xlink="http://www.w3.org/1999/xlink" x="0px" y="0px"
	 viewBox="0 0 203.3 50.6" style="enable-background:new 0 0 203.3 50.6;" xml:space="preserve">
<style type="text/css">
	.st0{fill:url(#SVGID_1_);}
	.st1{fill:url(#SVGID_2_);}
	.st2{fill:url(#SVGID_3_);}
	.st3{fill:#FFFFFF;}
	.st4{fill:#148CCC;}
</style>
<g>
	<radialGradient id="SVGID_1_" cx="42.7676" cy="8.1327" r="53.0897" gradientUnits="userSpaceOnUse">
		<stop  offset="0" style="stop-color:#148CCC"/>
		<stop  offset="1" style="stop-color:#2D3674"/>
	</radialGradient>
	<path class="st0" d="M30,2c5.7,0,10.7,1.8,15.1,5.4c1.8,1.5,3.4,3.2,4.7,5.2c0.3,0.4,0.3,0.5-0.1,0.9c-0.5,0.6-1.1,1.1-1.7,1.6
		c-2.8,2.3-5.7,4.4-8.7,6.4c-7.5,5-15.3,9.3-23.5,12.9c-1.8,0.8-3.5,1.5-5.4,2.1c-0.4,0.1-0.8,0.2-1.2,0.3c-0.5,0.1-0.5,0.1-0.7-0.4
		c-1.1-2.1-1.8-4.4-2.2-6.8c-0.3-1.8-0.4-3.6-0.2-5.4c0.2-3.6,1.2-7,3.1-10.2c3.6-6.2,9-10.1,16-11.6C26.9,2.1,28.4,2,30,2z"/>
	<radialGradient id="SVGID_2_" cx="42.7676" cy="8.1327" r="53.0897" gradientUnits="userSpaceOnUse">
		<stop  offset="0" style="stop-color:#148CCC"/>
		<stop  offset="1" style="stop-color:#2D3674"/>
	</radialGradient>
	<path class="st1" d="M53.5,7.9c0.8-0.1,1.6-0.2,2.4-0.2c0.8-0.1,1.6,0,2.4,0.2c1.3,0.4,1.8,1.3,1.6,2.6c-0.1,0.7-0.4,1.3-0.8,1.9
		c-0.7,1.3-1.6,2.4-2.6,3.4c-1.1,1.1-2.2,2.1-3.2,3.2c-0.2,0.2-0.2,0.3-0.2,0.5c0.4,1.5,0.7,2.9,0.8,4.4c0.1,1.1,0.1,2.3,0,3.5
		c-0.1,2.1-0.6,4.2-1.2,6.2c-2.7,7.8-9.3,13.7-17.4,15.5c-2.2,0.5-4.4,0.7-6.6,0.5c-5.8-0.4-10.9-2.6-15.1-6.6
		c-0.7-0.7-0.4-0.6-1.3-0.3c-1.9,0.6-3.8,1.1-5.8,1.4c-1.3,0.2-2.7,0.3-4,0.1C2.2,44,2,44,1.8,43.9c-1.1-0.4-1.6-1.3-1.3-2.5
		c0-0.1,0-0.2,0.1-0.4c0.5-1.5,1.4-2.7,2.4-3.9c0,0.1,0,0.1-0.1,0.2c-0.2,0.4-0.5,0.8-0.6,1.3C2.1,39,2,39.5,1.9,39.9
		c0,0.6,0.3,1.1,0.8,1.4c0.5,0.3,1,0.4,1.5,0.4c1.6,0.1,3.1-0.2,4.6-0.5c3.2-0.7,6.2-1.9,9.2-3.1c6.4-2.7,12.5-5.9,18.4-9.5
		c3.6-2.2,7.1-4.6,10.4-7.1c2.4-1.9,4.7-3.8,6.8-6c0.9-1,1.8-2,2.5-3.1c0.4-0.6,0.7-1.2,0.8-1.9c0.2-1-0.2-1.8-1.2-2.1
		C55.6,8.1,55.1,8,54.7,8C54.3,7.9,53.9,8,53.5,7.9C53.5,7.9,53.5,7.9,53.5,7.9z"/>
	<radialGradient id="SVGID_3_" cx="42.7676" cy="8.1327" r="53.0897" gradientUnits="userSpaceOnUse">
		<stop  offset="0" style="stop-color:#148CCC"/>
		<stop  offset="1" style="stop-color:#2D3674"/>
	</radialGradient>
	<path class="st2" d="M51.4,9c1-0.2,2.1-0.4,3.1-0.1c0.9,0.3,1.3,0.9,1,1.8c-0.2,0.5-0.4,1-0.7,1.5c-0.5,0.8-1.1,1.5-1.7,2.2
		c-2.5,2.7-5.3,4.9-8.3,7.1c-7,5.1-14.4,9.5-22.2,13.2c-3.6,1.7-7.2,3.3-11,4.5c-1.4,0.4-2.8,0.8-4.2,1c-0.9,0.1-1.8,0.2-2.7,0.1
		c0,0-0.1,0-0.1,0c-1.1-0.3-1.5-1-1.2-2c0.3-1,0.9-1.7,1.6-2.5c0,0.1-0.1,0.2-0.1,0.3c-0.1,0.2-0.2,0.5-0.3,0.7
		c-0.2,0.8,0.1,1.4,0.9,1.6c0.5,0.1,1,0.1,1.5,0.1c2-0.1,3.9-0.7,5.8-1.4c3.9-1.3,7.6-3,11.3-4.9c5.8-2.9,11.4-6.2,16.8-9.9
		c2.5-1.7,5-3.5,7.4-5.5c1.5-1.3,3-2.6,4.2-4.2c0.4-0.5,0.8-1.1,1.1-1.8c0.5-1.3-0.3-1.9-1.2-1.9C51.9,8.9,51.6,9,51.4,9z"/>
</g>
<g>
	<path class="st3" d="M188,13.7c0,4.5,0,8.9,0,13.4c-1.6,0.1-3.1,0-4.5,0c-0.2-0.6-0.3-19.7-0.1-20.9c0.3,0,0.5-0.1,0.8-0.1
		c1.2,0,2.4,0,3.6,0c0.6,0,0.9,0.2,1.2,0.6c2.7,3.9,5.4,7.9,8.2,11.8c0.1,0.2,0.3,0.4,0.6,0.6c0-1.4,0-2.9,0-4.3c0-1.4,0-2.8,0-4.3
		c0-1.4-0.1-2.9,0.1-4.3c1.6,0,3,0,4.6,0c0,0.3,0.1,0.6,0.1,0.8c0,6.4,0,12.8,0,19.2c0,0.3,0,0.6-0.1,0.9c-0.3,0-0.5,0-0.8,0
		c-1.1,0-2.1,0-3.2,0c-0.5,0-0.8-0.2-1.1-0.6c-1.3-1.9-2.7-3.8-4-5.7c-1.6-2.2-3.2-4.5-4.8-6.7c-0.1-0.2-0.3-0.4-0.4-0.5
		C188.1,13.6,188,13.6,188,13.7z"/>
	<path class="st3" d="M160.5,6.1c0.3,0,0.5,0,0.8,0c3.8,0,7.5,0,11.3,0c1.5,0,2.9,0.3,4.1,1.1c2.3,1.3,3.3,3.8,2.8,6.3
		c-0.3,1.4-1.1,2.5-2.4,3.2c-0.2,0.1-0.4,0.2-0.6,0.3c0.2,0.1,0.4,0.2,0.6,0.3c1,0.5,1.7,1.3,1.8,2.4c0.1,0.4,0.1,0.7,0.1,1.1
		c0,1.9,0,3.8,0,5.7c0,0.2,0,0.3-0.1,0.6c-1.6,0-3.2,0-4.9,0c0-0.3-0.1-0.6-0.1-1c0-1.4,0-2.7,0-4.1c0-0.2,0-0.4,0-0.6
		c-0.1-1.5-0.8-2.3-2.3-2.3c-1.9-0.1-3.8-0.1-5.7-0.1c-0.6,0-0.7,0.1-0.7,0.7c0,2.1,0,4.2,0,6.4c0,0.3,0,0.7-0.1,1
		c-1.6,0-3.2,0-4.7,0C160.3,26.5,160.3,7.1,160.5,6.1z M165.4,15.2c0.3,0,0.4,0.1,0.5,0.1c2.1,0,4.2,0,6.3,0c0.3,0,0.6-0.1,0.9-0.1
		c1.2-0.3,1.9-1.3,1.9-2.5c0-1.3-0.7-2.3-1.9-2.6c-0.3-0.1-0.7-0.1-1.1-0.1c-2,0-3.9,0-5.9,0c-0.2,0-0.4,0-0.7,0.1
		C165.3,11.8,165.3,13.5,165.4,15.2z"/>
	<path class="st3" d="M92.9,12.4c-1.6,0-3.1,0-4.7,0c-0.1-0.3-0.2-0.5-0.2-0.7c-0.3-1-0.9-1.6-1.8-2c-0.6-0.2-1.1-0.3-1.7-0.3
		c-0.9,0-1.9,0-2.8,0.2c-0.4,0-0.8,0.3-1.2,0.5c-1.1,0.6-1.4,2.5,0,3.3c0.8,0.5,1.7,0.7,2.6,0.9c1.9,0.5,3.8,0.9,5.7,1.4
		c0.5,0.1,1.1,0.4,1.6,0.6c2.3,0.8,3.3,2.5,3.5,4.8c0.1,2-0.6,3.6-2.2,4.9c-1.3,1.1-2.9,1.6-4.5,1.8c-2.5,0.4-4.9,0.2-7.4-0.4
		c-0.9-0.2-1.8-0.6-2.6-1.2c-1.6-1.1-2.5-2.7-2.7-4.7c0-0.2,0-0.4,0-0.5c0.6-0.2,3.7-0.3,4.8-0.1c0,0.1,0.1,0.2,0.1,0.3
		c0.2,1.1,0.8,1.9,1.8,2.4c1.2,0.6,2.6,0.8,3.9,0.7c0.8-0.1,1.7-0.2,2.5-0.6c0.9-0.5,1.4-1.2,1.4-2.3c0-0.8-0.4-1.5-1.1-1.8
		c-0.8-0.3-1.6-0.6-2.5-0.8c-1.8-0.4-3.6-0.8-5.3-1.3c-0.8-0.2-1.5-0.5-2.2-0.9c-2.1-1.1-3-2.9-2.8-5.5C75,9.2,76,7.8,77.7,6.8
		c1.4-0.8,2.9-1.2,4.5-1.3C84,5.4,85.8,5.4,87.5,6c1,0.3,1.9,0.7,2.8,1.3c1.5,1.1,2.4,2.6,2.6,4.5C93,12,92.9,12.1,92.9,12.4z"/>
	<path class="st3" d="M137.3,6.2c1.8,0,3.4,0,5.1,0c0,0.4,0.1,0.7,0.1,1.1c0,4.1,0,8.3,0,12.4c0,0.5,0,1,0.1,1.5
		c0.3,1.6,1.5,2.7,3.2,2.9c1,0.1,2,0.1,3-0.2c1.5-0.5,2.3-1.5,2.4-3.1c0-0.4,0-0.8,0-1.2c0-4.1,0-8.3,0-12.4c0-0.3,0-0.7,0.1-1
		c1.7,0,3.3,0,5,0c0,0.3,0.1,0.6,0.1,0.9c0,4.3,0,8.7,0,13c0,0.8-0.1,1.6-0.3,2.4c-0.5,2-1.8,3.5-3.7,4.3c-1.2,0.6-2.5,0.8-3.8,1
		c-1.7,0.2-3.4,0.2-5.1-0.2c-0.9-0.2-1.7-0.5-2.6-0.9c-2.4-1.2-3.6-3.2-3.6-5.8c-0.1-2.7,0-5.4,0-8.1c0-1.9,0-3.8,0-5.7
		C137.3,6.8,137.3,6.5,137.3,6.2z"/>
	<path class="st3" d="M117.8,27.1c-0.2,0-0.4,0-0.6,0.1c-1.4,0-2.7,0-4.1,0c-0.7,0-0.7,0-0.9-0.7c-0.3-1-0.7-2-1-3
		c-0.2-0.6-0.2-0.6-0.9-0.6c-2.4,0-4.8,0-7.2,0c-0.5,0-0.7,0.2-0.9,0.6c-0.4,1-0.8,2.1-1.2,3.1c-0.2,0.4-0.4,0.6-0.9,0.6
		c-1.4,0-2.7,0-4.1,0c-0.2,0-0.3,0-0.5-0.1c0.1-0.3,0.2-0.5,0.2-0.8c2.6-6.5,5.2-12.9,7.8-19.4c0.3-0.8,0.3-0.8,1.2-0.8
		c1.4,0,2.7,0,4.1,0c0.8,0,0.8,0,1.1,0.8c2.3,5.9,4.6,11.7,6.9,17.6c0.3,0.7,0.6,1.4,0.8,2.2C117.7,26.8,117.8,26.9,117.8,27.1z
		 M106.7,11.3c-0.1,0-0.1,0-0.2,0c-0.9,2.6-1.9,5.2-2.8,7.8c1.9,0,3.8,0,5.7,0C108.5,16.4,107.6,13.9,106.7,11.3z"/>
	<path class="st3" d="M133.7,6.2c0,1.3,0,2.4,0,3.7c-1.2,0-2.4,0-3.5,0c-1.1,0-2.3,0-3.5,0c-0.1,1.5,0,2.9,0,4.3c0,1.4,0,2.8,0,4.3
		c0,1.4,0,2.8,0,4.3c0,1.4,0,2.8,0,4.2c-0.6,0.2-3.7,0.3-5,0.1c0-0.3,0-0.6,0-0.9c0-5.1,0-10.1,0-15.2c0-0.3,0-0.6,0-1
		c-2.4,0-4.6,0-6.8,0c-0.3-0.7-0.3-2.9-0.1-3.8C121,6.2,127.3,6.2,133.7,6.2z"/>
	<path class="st4" d="M74.6,33.7c0.3,0,0.5-0.1,0.7-0.1c2,0,3.9,0,5.9,0c0.6,0,1.2,0.1,1.8,0.3c1.2,0.4,1.8,1.5,1.8,2.7
		c0,0.7-0.3,1.3-0.8,1.7c-0.2,0.2-0.4,0.3-0.6,0.4c0.1,0.1,0.1,0.1,0.2,0.2c1.2,0.6,1.6,1.6,1.5,2.8c-0.1,1.3-0.7,2.2-1.8,2.6
		c-0.7,0.3-1.4,0.5-2.1,0.5c-2.1,0.1-4.1,0-6.2,0c-0.1,0-0.2,0-0.4-0.1c-0.2-0.7-0.1-1.5-0.1-2.2c0-0.7,0-1.5,0-2.2s0-1.5,0-2.2
		c0-0.7,0-1.5,0-2.2C74.6,35.2,74.6,34.5,74.6,33.7z M77.3,42.9c1.4,0,2.7,0,4,0c0.2,0,0.4-0.1,0.6-0.3c0.5-0.4,0.7-0.9,0.6-1.5
		c-0.1-0.6-0.5-0.9-1-1C81.3,40,81,40,80.8,40c-0.9,0-1.9,0-2.8,0c-0.2,0-0.4,0-0.6,0.1C77.3,41,77.3,41.9,77.3,42.9z M77.3,35.6
		c0,0.9-0.1,1.6,0.1,2.3c1.2,0,2.4,0,3.6,0c0.8,0,1.2-0.5,1.2-1.1c0-0.7-0.4-1.1-1.3-1.2c-0.8,0-1.6,0-2.5,0
		C78.1,35.6,77.8,35.6,77.3,35.6z"/>
	<path class="st4" d="M172.8,33.7c0,3.7,0,7.4,0,11.2c-0.8,0.2-1.5,0.1-2.3,0c-0.2,0-0.4-0.3-0.6-0.6c-1.4-1.9-2.7-3.8-4.1-5.7
		c-0.2-0.3-0.5-0.6-0.7-1c-0.3,0.3-0.2,0.6-0.2,0.8c0,1.8,0,3.6,0,5.3c0,0.3,0,0.6-0.1,1c-0.8,0-1.6,0-2.3,0
		c-0.2-0.6-0.2-10.5,0-11.3c0.8,0,1.6,0,2.4,0c0.4,0,0.5,0.3,0.7,0.6c1.4,1.9,2.7,3.8,4.1,5.8c0.1,0.2,0.3,0.4,0.6,0.7
		c0-0.3,0.1-0.5,0.1-0.7c0-1.8,0-3.6,0-5.3c0-0.3,0-0.6,0-1C171.1,33.7,171.9,33.7,172.8,33.7z"/>
	<path class="st4" d="M126.8,40c-2.1,0-4.1,0-6,0c-0.2,0.7-0.3,2.1-0.1,2.9c2.3,0,4.5,0,6.8,0c0.2,0.7,0.2,1.3,0.1,1.9
		c-0.6,0.2-8.7,0.2-9.6,0.1c-0.2-0.6-0.2-10.2,0-11.1c0.6-0.2,8.4-0.2,9.3,0c0,0.6,0,1.2,0,1.9c-1.2,0.1-2.3,0-3.4,0
		c-1.1,0-2.2,0-3.3,0c-0.1,0.8-0.1,1.5,0,2.3c0.3,0,0.6,0.1,0.9,0.1c1.5,0,3,0,4.5,0c0.8,0,0.8,0.1,0.8,0.8
		C126.9,39.2,126.8,39.5,126.8,40z"/>
	<path class="st4" d="M202.1,37c-0.9,0-1.6,0-2.3,0c-0.3,0-0.4-0.2-0.5-0.4c-0.3-0.9-0.9-1.2-1.8-1.3c-0.5,0-1,0-1.5,0
		c-0.3,0-0.7,0.2-1,0.4c-0.6,0.4-0.6,1.3,0,1.7c0.4,0.3,0.9,0.4,1.4,0.5c1,0.3,2,0.5,3,0.7c0.4,0.1,0.7,0.3,1.1,0.4
		c2.2,0.8,2.4,3.9,0.7,5.1c-0.5,0.4-1.1,0.7-1.8,0.9c-1.7,0.5-3.5,0.4-5.2-0.2c-1.2-0.4-2.1-1.2-2.4-2.4c-0.1-0.3-0.1-0.5-0.1-0.9
		c0.9,0,1.7,0,2.5,0c0,0,0.1,0.1,0.1,0.1c0.3,1,1,1.5,2,1.6c0.7,0.1,1.4,0,2.1-0.1c0.3,0,0.5-0.2,0.8-0.4c0.7-0.6,0.6-1.6-0.2-2
		c-0.4-0.2-0.8-0.3-1.2-0.4c-0.9-0.2-1.8-0.4-2.7-0.6c-0.6-0.2-1.1-0.4-1.7-0.6c-2-1-1.8-3.8-0.5-4.8c0.4-0.3,0.9-0.6,1.4-0.8
		c1.7-0.6,3.4-0.5,5,0.1c1,0.4,1.8,1,2.2,2C201.9,36.1,201.9,36.4,202.1,37z"/>
	<path class="st4" d="M177.4,33.6c1,0,1.7,0,2.6,0c0.2,0.7,0.1,1.5,0.1,2.2c0,0.7,0,1.4,0,2.3c0.3-0.3,0.6-0.4,0.7-0.6
		c1.2-1.1,2.3-2.1,3.4-3.2c0.5-0.5,1-0.7,1.6-0.6c0.8,0,1.5,0,2.3,0.1c-0.7,0.8-1.5,1.5-2.3,2.2c-0.8,0.7-1.6,1.4-2.5,2.2
		c0.9,1.2,1.7,2.3,2.5,3.4c0.8,1.1,1.7,2.2,2.6,3.5c-1.2,0-2.1,0-3.1,0c-0.2,0-0.4-0.3-0.6-0.5c-0.9-1.2-1.9-2.5-2.8-3.7
		c-0.2-0.2-0.3-0.4-0.6-0.7c-0.4,0.4-0.9,0.7-1.2,1.1c-0.1,0.1-0.2,0.4-0.2,0.7c0,0.8,0,1.5,0,2.3c0,0.3,0,0.6,0,0.9
		c-0.9,0.1-1.7,0.1-2.6,0c-0.1-1.3,0-2.5-0.1-3.7c0-1.3,0-2.5,0-3.8C177.4,36.2,177.4,34.9,177.4,33.6z"/>
	<path class="st4" d="M105.7,33.7c0,0.3,0,0.6,0,0.9c0,2,0,4.1,0,6.1c0,0.3,0,0.5,0,0.8c0.1,0.9,0.6,1.4,1.5,1.7
		c0.7,0.2,1.4,0.1,2.1-0.2c0.7-0.3,1.1-0.9,1.1-1.6c0-0.5,0-0.9,0-1.4c0-1.8,0-3.6,0-5.4c0-0.3,0-0.6,0-1c0.9-0.1,1.8-0.1,2.7,0
		c0,0.3,0.1,0.6,0.1,0.9c0,2.1,0,4.2,0,6.3c0,2.5-1.1,3.8-3.5,4.3c-1.3,0.2-2.5,0.2-3.8-0.1c-2.1-0.5-3.1-1.8-3.1-3.9
		c0-2.2,0-4.4,0-6.7c0-0.3,0-0.5,0-0.7C103.5,33.6,104.8,33.5,105.7,33.7z"/>
	<path class="st4" d="M150.5,42.9c0.2,0.7,0.2,1.3,0,2c-3,0-5.9,0-8.8,0c-0.2-0.6-0.3-10.1-0.1-11.2c0.8-0.1,1.7-0.1,2.6,0
		c0,0.4,0.1,0.7,0.1,1c0,2.4,0,4.8,0,7.2c0,0.3,0,0.6,0.1,1C146.4,42.9,148.4,42.8,150.5,42.9z"/>
	<path class="st4" d="M89.5,44.8c0-3.7,0-7.4,0-11.2c0.9,0,1.7,0,2.6,0c0.2,1.5,0,3.1,0.1,4.6c0,1.5,0,3,0,4.6c0.4,0,0.7,0.1,1,0.1
		c1.4,0,2.9,0,4.3,0c0.3,0,0.6,0,1,0c0,0.7,0,1.3,0,1.9C97.9,45,90.6,45,89.5,44.8z"/>
	<path class="st4" d="M155,44.9c0-3.8,0-7.5,0-11.2c0.9,0,1.7,0,2.6,0c0,0.3,0.1,0.5,0.1,0.8c0,3.2,0,6.4,0,9.6c0,0.3,0,0.5-0.1,0.8
		C156.7,44.9,155.9,44.9,155,44.9z"/>
</g>
</svg>
