<?xml version="1.0" encoding="UTF-8" standalone="no"?>
<!-- Created with Inkscape (http://www.inkscape.org/) -->

<svg
   xmlns:dc="http://purl.org/dc/elements/1.1/"
   xmlns:cc="http://creativecommons.org/ns#"
   xmlns:rdf="http://www.w3.org/1999/02/22-rdf-syntax-ns#"
   xmlns:svg="http://www.w3.org/2000/svg"
   xmlns="http://www.w3.org/2000/svg"
   xmlns:sodipodi="http://sodipodi.sourceforge.net/DTD/sodipodi-0.dtd"
   xmlns:inkscape="http://www.inkscape.org/namespaces/inkscape"
   width="150"
   height="50"
   viewBox="0 0 39.687501 13.229167"
   version="1.1"
   id="svg861"
   sodipodi:docname="logo.svg"
   inkscape:version="0.92.3 (2405546, 2018-03-11)">
  <defs
     id="defs855" />
  <sodipodi:namedview
     id="base"
     pagecolor="#ffffff"
     bordercolor="#666666"
     borderopacity="1.0"
     inkscape:pageopacity="0.0"
     inkscape:pageshadow="2"
     inkscape:zoom="3.7214859"
     inkscape:cx="89.929478"
     inkscape:cy="30.278675"
     inkscape:document-units="mm"
     inkscape:current-layer="layer1"
     showgrid="false"
     units="px"
     inkscape:window-width="1366"
     inkscape:window-height="713"
     inkscape:window-x="0"
     inkscape:window-y="0"
     inkscape:window-maximized="1" />
  <metadata
     id="metadata858">
    <rdf:RDF>
      <cc:Work
         rdf:about="">
        <dc:format>image/svg+xml</dc:format>
        <dc:type
           rdf:resource="http://purl.org/dc/dcmitype/StillImage" />
        <dc:title></dc:title>
      </cc:Work>
    </rdf:RDF>
  </metadata>
  <g
     inkscape:label="Layer 1"
     inkscape:groupmode="layer"
     id="layer1"
     transform="translate(0,-283.77084)">
    <g
       id="g1419"
       transform="matrix(0.15663232,0,0,0.15663232,5.9373394,259.71656)"
       style="stroke-width:6.38437891">
      <g
         aria-label="TEXTURISERS PVT. LTD."
         style="font-variant:normal;font-weight:bold;font-size:21.11706543px;font-family:'Times New Roman';-inkscape-font-specification:TimesNewRomanPS-BoldMT;writing-mode:lr-tb;fill:#ffffff;fill-opacity:1;fill-rule:nonzero;stroke:none;stroke-width:2.25226688"
         id="text919">
        <path
           d="m -23.920205,217.15278 v 3.78416 h -0.371198 q -0.329954,-1.30951 -0.732086,-1.87662 -0.402132,-0.57742 -1.103284,-0.91768 -0.391821,-0.1856 -1.371372,-0.1856 h -1.041418 v 10.78537 q 0,1.07236 0.113422,1.34044 0.123733,0.26809 0.463998,0.47431 0.350576,0.19591 0.948618,0.19591 h 0.463998 v 0.38151 h -7.320858 v -0.38151 h 0.463998 q 0.608353,0 0.979552,-0.21653 0.268088,-0.14435 0.422754,-0.49493 0.113421,-0.24747 0.113421,-1.2992 v -10.78537 h -1.010484 q -1.412617,0 -2.051903,0.59804 -0.897063,0.8352 -1.134217,2.38186 h -0.391821 v -3.78416 z"
           style="fill:#ffffff;fill-opacity:1;stroke-width:2.25226688"
           id="path1421"
           inkscape:connector-curvature="0" />
        <path
           d="m -17.403399,217.95704 v 5.69171 h 0.278398 q 1.330128,0 1.92817,-0.8352 0.598042,-0.8352 0.763019,-2.46434 h 0.391821 v 7.32085 h -0.391821 q -0.123733,-1.19608 -0.525864,-1.9591 -0.391821,-0.76302 -0.917685,-1.02079 -0.525865,-0.26809 -1.526038,-0.26809 v 3.93883 q 0,1.15483 0.0928,1.41261 0.103111,0.25778 0.371199,0.42276 0.268087,0.16497 0.866129,0.16497 h 0.835197 q 1.959102,0 3.134564,-0.90737 1.185773,-0.90738 1.701326,-2.76337 h 0.38151 l -0.628975,4.44407 H -22.73422 v -0.38151 h 0.463998 q 0.608353,0 0.979551,-0.21653 0.268088,-0.14435 0.412443,-0.49493 0.113422,-0.24747 0.113422,-1.2992 v -9.19747 q 0,-0.94862 -0.05156,-1.16515 -0.10311,-0.36088 -0.381509,-0.5568 -0.391821,-0.2887 -1.072351,-0.2887 h -0.463998 v -0.38151 h 11.703061 v 4.13473 h -0.39182 q -0.299021,-1.51572 -0.845508,-2.17563 -0.536175,-0.65991 -1.526038,-0.96924 -0.57742,-0.1856 -2.165324,-0.1856 z"
           style="fill:#ffffff;fill-opacity:1;stroke-width:2.25226688"
           id="path1423"
           inkscape:connector-curvature="0" />
        <path
           d="m -0.15287787,222.93728 3.85633907,5.72265 q 0.9589293,1.42292 1.3610609,1.73226 0.4124427,0.29902 0.9692403,0.36088 v 0.38151 h -6.81561536 v -0.38151 q 0.8145743,-0.0619 1.05172884,-0.24746 0.23715455,-0.1856 0.23715455,-0.45369 0,-0.1856 -0.0721775,-0.32995 -0.14435494,-0.30934 -0.7217747,-1.15484 l -2.04159123,-3.02115 -2.1343909,2.6087 q -0.9589293,1.18578 -0.9589293,1.60853 0,0.29902 0.2474657,0.5568 0.2474656,0.25777 0.7320857,0.3712 0.2165324,0.0619 0.8867518,0.0619 v 0.38151 h -5.372066 v -0.38151 q 0.917685,-0.13404 1.4435494,-0.49493 0.6908415,-0.47431 1.9281696,-1.97972 l 2.773677,-3.38203 -3.5573181,-5.22771 q -0.8764407,-1.28889 -1.0001735,-1.43324 -0.2783989,-0.34027 -0.5464866,-0.48462 -0.2680877,-0.14436 -0.7423968,-0.21653 v -0.38151 h 6.9393481 v 0.38151 h -0.3505762 q -0.5980419,0 -0.8351965,0.19591 -0.2371545,0.18559 -0.2371545,0.4743 0,0.22685 0.072177,0.39182 l 0.7114637,1.07236 1.73225922,2.63963 1.47448259,-1.80444 q 1.13421739,-1.39199 1.13421739,-1.94879 0,-0.2784 -0.164977,-0.51555 -0.1546661,-0.23716 -0.453687,-0.3712 -0.2990209,-0.13404 -0.92799607,-0.13404 v -0.38151 H 5.6110086 v 0.38151 q -0.6083529,0.0103 -0.9795513,0.15466 -0.3711984,0.13404 -0.7939522,0.51555 -0.2680877,0.24747 -1.3404387,1.53635 z"
           style="fill:#ffffff;fill-opacity:1;stroke-width:2.25226688"
           id="path1425"
           inkscape:connector-curvature="0" />
        <path
           d="m 19.496482,217.15278 v 3.78416 h -0.371198 q -0.329954,-1.30951 -0.732086,-1.87662 -0.402132,-0.57742 -1.103284,-0.91768 -0.391821,-0.1856 -1.371372,-0.1856 h -1.041418 v 10.78537 q 0,1.07236 0.113422,1.34044 0.123733,0.26809 0.463998,0.47431 0.350576,0.19591 0.948618,0.19591 h 0.463998 v 0.38151 H 9.5463024 v -0.38151 H 10.0103 q 0.608353,0 0.979552,-0.21653 0.268088,-0.14435 0.422754,-0.49493 0.113421,-0.24747 0.113421,-1.2992 v -10.78537 h -1.010484 q -1.4126165,0 -2.0519027,0.59804 -0.8970628,0.8352 -1.1342173,2.38186 H 6.9376024 v -3.78416 z"
           style="fill:#ffffff;fill-opacity:1;stroke-width:2.25226688"
           id="path1427"
           inkscape:connector-curvature="0" />
        <path
           d="m 20.754586,217.15278 h 7.217747 v 0.38151 h -0.360887 q -0.814574,0 -1.123906,0.17528 -0.299021,0.16498 -0.433065,0.464 -0.123733,0.29902 -0.123733,1.49511 v 6.84654 q 0,1.87662 0.278399,2.48497 0.28871,0.60835 0.938307,1.01049 0.649597,0.40213 1.639459,0.40213 1.134218,0 1.92817,-0.50524 0.804263,-0.51556 1.196084,-1.41262 0.402131,-0.89706 0.402131,-3.12425 v -5.70202 q 0,-0.93831 -0.19591,-1.34044 -0.19591,-0.40213 -0.494931,-0.5568 -0.463998,-0.23715 -1.309506,-0.23715 v -0.38151 h 4.835891 v 0.38151 h -0.28871 q -0.587731,0 -0.979551,0.23715 -0.391821,0.23715 -0.567109,0.71146 -0.134044,0.32996 -0.134044,1.18578 v 5.3102 q 0,2.46434 -0.329954,3.55731 -0.319643,1.09298 -1.577593,2.01066 -1.257951,0.91769 -3.433586,0.91769 -1.814747,0 -2.80461,-0.48462 -1.35075,-0.65991 -1.907547,-1.69102 -0.556798,-1.03111 -0.556798,-2.77368 v -6.84654 q 0,-1.2064 -0.134044,-1.49511 -0.134044,-0.29902 -0.463998,-0.47431 -0.329954,-0.17529 -1.216706,-0.16497 z"
           style="fill:#ffffff;fill-opacity:1;stroke-width:2.25226688"
           id="path1429"
           inkscape:connector-curvature="0" />
        <path
           d="m 41.115412,224.76234 v 3.91821 q 0,1.13422 0.134044,1.43324 0.144355,0.28871 0.494931,0.46399 0.350576,0.17529 1.309505,0.17529 v 0.38151 h -7.15588 v -0.38151 q 0.96924,0 1.309505,-0.17529 0.350577,-0.18559 0.48462,-0.4743 0.144355,-0.28871 0.144355,-1.42293 v -9.07374 q 0,-1.13422 -0.144355,-1.42293 -0.134043,-0.29902 -0.48462,-0.47431 -0.350576,-0.17528 -1.309505,-0.17528 v -0.38151 h 6.495972 q 2.536523,0 3.711984,0.35057 1.175462,0.35058 1.917859,1.2992 0.742397,0.9383 0.742397,2.20656 0,1.54666 -1.113596,2.55715 -0.711463,0.63929 -1.990036,0.95893 l 3.361408,4.73278 q 0.659909,0.91768 0.938307,1.14453 0.422754,0.31964 0.979552,0.35057 v 0.38151 h -4.402826 l -4.505936,-6.37224 z m 0,-6.85686 v 6.12478 h 0.587731 q 1.433238,0 2.144702,-0.25778 0.711463,-0.26809 1.113595,-0.94862 0.412442,-0.69084 0.412442,-1.79412 0,-1.59822 -0.752707,-2.36124 -0.742397,-0.76302 -2.402479,-0.76302 z"
           style="fill:#ffffff;fill-opacity:1;stroke-width:2.25226688"
           id="path1431"
           inkscape:connector-curvature="0" />
        <path
           d="m 58.48602,230.75307 v 0.38151 h -7.310546 v -0.38151 h 0.463998 q 0.608353,0 0.979551,-0.21653 0.268088,-0.14435 0.412443,-0.49493 0.113421,-0.24747 0.113421,-1.2992 v -9.19747 q 0,-1.07235 -0.113421,-1.34044 -0.113422,-0.26808 -0.463998,-0.46399 -0.340266,-0.20622 -0.927996,-0.20622 h -0.463998 v -0.38151 h 7.310546 v 0.38151 h -0.463998 q -0.608353,0 -0.979551,0.21653 -0.268088,0.14435 -0.422754,0.49493 -0.113422,0.24746 -0.113422,1.29919 v 9.19747 q 0,1.07236 0.113422,1.34044 0.123733,0.26809 0.463998,0.47431 0.350576,0.19591 0.938307,0.19591 z"
           style="fill:#ffffff;fill-opacity:1;stroke-width:2.25226688"
           id="path1433"
           inkscape:connector-curvature="0" />
        <path
           d="m 68.886467,216.83313 0.113422,4.6606 h -0.422754 q -0.299021,-1.75288 -1.474483,-2.81492 -1.16515,-1.07235 -2.526211,-1.07235 -1.051729,0 -1.670393,0.56711 -0.608353,0.5568 -0.608353,1.28888 0,0.464 0.216532,0.82489 0.299021,0.48462 0.95893,0.95893 0.48462,0.34026 2.237501,1.20639 2.454034,1.2064 3.309853,2.27875 0.845507,1.07235 0.845507,2.45403 0,1.75289 -1.371372,3.02115 -1.361061,1.25795 -3.464518,1.25795 -0.659909,0 -1.247639,-0.13405 -0.587731,-0.13404 -1.474483,-0.50524 -0.494931,-0.20622 -0.814574,-0.20622 -0.268088,0 -0.567109,0.20622 -0.299021,0.20622 -0.48462,0.62898 h -0.38151 v -5.27927 h 0.38151 q 0.453687,2.22719 1.74257,3.40265 1.299195,1.16515 2.794299,1.16515 1.15484,0 1.83537,-0.62897 0.690842,-0.62898 0.690842,-1.46417 0,-0.49494 -0.268088,-0.95893 -0.257777,-0.464 -0.793952,-0.87644 -0.536176,-0.42276 -1.897236,-1.09298 -1.907548,-0.9383 -2.742744,-1.59821 -0.835197,-0.65991 -1.288884,-1.47449 -0.443376,-0.81457 -0.443376,-1.79412 0,-1.67039 1.227017,-2.84586 1.227017,-1.17546 3.093321,-1.17546 0.68053,0 1.319816,0.16498 0.48462,0.12373 1.175462,0.464 0.701152,0.32995 0.979551,0.32995 0.268088,0 0.422754,-0.16498 0.154666,-0.16497 0.28871,-0.79395 z"
           style="fill:#ffffff;fill-opacity:1;stroke-width:2.25226688"
           id="path1435"
           inkscape:connector-curvature="0" />
        <path
           d="m 76.461858,217.95704 v 5.69171 h 0.278399 q 1.330127,0 1.928169,-0.8352 0.598042,-0.8352 0.763019,-2.46434 h 0.391821 v 7.32085 h -0.391821 q -0.123733,-1.19608 -0.525864,-1.9591 -0.391821,-0.76302 -0.917685,-1.02079 -0.525865,-0.26809 -1.526038,-0.26809 v 3.93883 q 0,1.15483 0.0928,1.41261 0.10311,0.25778 0.371198,0.42276 0.268088,0.16497 0.86613,0.16497 h 0.835196 q 1.959103,0 3.134564,-0.90737 1.185773,-0.90738 1.701326,-2.76337 h 0.38151 l -0.628975,4.44407 H 71.131036 v -0.38151 h 0.463998 q 0.608353,0 0.979552,-0.21653 0.268087,-0.14435 0.412442,-0.49493 0.113422,-0.24747 0.113422,-1.2992 v -9.19747 q 0,-0.94862 -0.05155,-1.16515 -0.103111,-0.36088 -0.38151,-0.5568 -0.39182,-0.2887 -1.072351,-0.2887 h -0.463998 v -0.38151 h 11.703061 v 4.13473 h -0.39182 q -0.299021,-1.51572 -0.845508,-2.17563 -0.536175,-0.65991 -1.526038,-0.96924 -0.577419,-0.1856 -2.165324,-0.1856 z"
           style="fill:#ffffff;fill-opacity:1;stroke-width:2.25226688"
           id="path1437"
           inkscape:connector-curvature="0" />
        <path
           d="m 90.402617,224.76234 v 3.91821 q 0,1.13422 0.134043,1.43324 0.144355,0.28871 0.494932,0.46399 0.350576,0.17529 1.309505,0.17529 v 0.38151 h -7.15588 v -0.38151 q 0.96924,0 1.309505,-0.17529 0.350576,-0.18559 0.48462,-0.4743 0.144355,-0.28871 0.144355,-1.42293 v -9.07374 q 0,-1.13422 -0.144355,-1.42293 -0.134044,-0.29902 -0.48462,-0.47431 -0.350576,-0.17528 -1.309505,-0.17528 v -0.38151 h 6.495972 q 2.536522,0 3.711984,0.35057 1.175462,0.35058 1.917858,1.2992 0.742397,0.9383 0.742397,2.20656 0,1.54666 -1.113595,2.55715 -0.711464,0.63929 -1.990036,0.95893 l 3.361408,4.73278 q 0.659908,0.91768 0.938307,1.14453 0.422754,0.31964 0.979548,0.35057 v 0.38151 h -4.402822 l -4.505937,-6.37224 z m 0,-6.85686 v 6.12478 h 0.58773 q 1.433239,0 2.144702,-0.25778 0.711464,-0.26809 1.113596,-0.94862 0.412442,-0.69084 0.412442,-1.79412 0,-1.59822 -0.752708,-2.36124 -0.742397,-0.76302 -2.402478,-0.76302 z"
           style="fill:#ffffff;fill-opacity:1;stroke-width:2.25226688"
           id="path1439"
           inkscape:connector-curvature="0" />
        <path
           d="m 109.95919,216.83313 0.11343,4.6606 h -0.42276 q -0.29902,-1.75288 -1.47448,-2.81492 -1.16515,-1.07235 -2.52621,-1.07235 -1.05173,0 -1.67039,0.56711 -0.60836,0.5568 -0.60836,1.28888 0,0.464 0.21653,0.82489 0.29903,0.48462 0.95893,0.95893 0.48462,0.34026 2.23751,1.20639 2.45403,1.2064 3.30985,2.27875 0.84551,1.07235 0.84551,2.45403 0,1.75289 -1.37138,3.02115 -1.36106,1.25795 -3.46452,1.25795 -0.6599,0 -1.24763,-0.13405 -0.58773,-0.13404 -1.47449,-0.50524 -0.49493,-0.20622 -0.81457,-0.20622 -0.26809,0 -0.56711,0.20622 -0.29902,0.20622 -0.48462,0.62898 h -0.38151 v -5.27927 h 0.38151 q 0.45369,2.22719 1.74257,3.40265 1.29919,1.16515 2.7943,1.16515 1.15484,0 1.83537,-0.62897 0.69084,-0.62898 0.69084,-1.46417 0,-0.49494 -0.26809,-0.95893 -0.25777,-0.464 -0.79395,-0.87644 -0.53617,-0.42276 -1.89724,-1.09298 -1.90754,-0.9383 -2.74274,-1.59821 -0.8352,-0.65991 -1.28888,-1.47449 -0.44338,-0.81457 -0.44338,-1.79412 0,-1.67039 1.22702,-2.84586 1.22702,-1.17546 3.09332,-1.17546 0.68053,0 1.31982,0.16498 0.48462,0.12373 1.17546,0.464 0.70115,0.32995 0.97955,0.32995 0.26809,0 0.42275,-0.16498 0.15467,-0.16497 0.28871,-0.79395 z"
           style="fill:#ffffff;fill-opacity:1;stroke-width:2.25226688"
           id="path1441"
           inkscape:connector-curvature="0" />
        <path
           d="m 122.76231,224.80359 v 3.87696 q 0,1.13422 0.13404,1.43324 0.14436,0.28871 0.49493,0.46399 0.36089,0.17529 1.30951,0.17529 v 0.38151 h -7.10433 v -0.38151 q 0.96924,0 1.30951,-0.17529 0.35057,-0.18559 0.48462,-0.4743 0.14435,-0.28871 0.14435,-1.42293 v -9.07374 q 0,-1.13422 -0.14435,-1.42293 -0.13405,-0.29902 -0.48462,-0.47431 -0.35058,-0.17528 -1.30951,-0.17528 v -0.38151 h 6.09384 q 3.01084,0 4.32034,1.07235 1.30951,1.07235 1.30951,2.68087 0,1.36106 -0.84551,2.33031 -0.84551,0.96924 -2.3303,1.31981 -1.00018,0.24747 -3.38203,0.24747 z m 0,-6.84655 v 6.04228 q 0.34026,0.0206 0.51555,0.0206 1.25795,0 1.93848,-0.7424 0.68053,-0.75271 0.68053,-2.31999 0,-1.55697 -0.68053,-2.27875 -0.68053,-0.72177 -2.03128,-0.72177 z"
           style="fill:#ffffff;fill-opacity:1;stroke-width:2.25226688"
           id="path1443"
           inkscape:connector-curvature="0" />
        <path
           d="m 144.99638,217.15278 v 0.38151 q -0.76302,0.12373 -1.36106,0.81457 -0.43306,0.51555 -1.28888,2.4231 l -4.81527,10.68227 h -0.34027 l -4.79464,-11.11533 q -0.86613,-2.01066 -1.16515,-2.36124 -0.28871,-0.35058 -1.10329,-0.44337 v -0.38151 h 6.7022 v 0.38151 h -0.22685 q -0.90737,0 -1.23733,0.22684 -0.23715,0.15466 -0.23715,0.45369 0,0.18559 0.0825,0.44337 0.0825,0.24747 0.5568,1.35075 l 2.97989,6.95997 2.76337,-6.19695 q 0.49493,-1.12391 0.60835,-1.50542 0.11342,-0.38151 0.11342,-0.64959 0,-0.30933 -0.16497,-0.54649 -0.16498,-0.23715 -0.48462,-0.36089 -0.44338,-0.17528 -1.17546,-0.17528 v -0.38151 z"
           style="fill:#ffffff;fill-opacity:1;stroke-width:2.25226688"
           id="path1445"
           inkscape:connector-curvature="0" />
        <path
           d="m 158.53126,217.15278 v 3.78416 h -0.37119 q -0.32996,-1.30951 -0.73209,-1.87662 -0.40213,-0.57742 -1.10328,-0.91768 -0.39182,-0.1856 -1.37138,-0.1856 h -1.04141 v 10.78537 q 0,1.07236 0.11342,1.34044 0.12373,0.26809 0.464,0.47431 0.35057,0.19591 0.94861,0.19591 h 0.464 v 0.38151 h -7.32086 v -0.38151 h 0.464 q 0.60836,0 0.97955,-0.21653 0.26809,-0.14435 0.42276,-0.49493 0.11342,-0.24747 0.11342,-1.2992 v -10.78537 h -1.01048 q -1.41262,0 -2.05191,0.59804 -0.89706,0.8352 -1.13421,2.38186 h -0.39183 v -3.78416 z"
           style="fill:#ffffff;fill-opacity:1;stroke-width:2.25226688"
           id="path1447"
           inkscape:connector-curvature="0" />
        <path
           d="m 160.30556,227.95877 q 0.72177,0 1.2167,0.50525 0.50525,0.50524 0.50525,1.2167 0,0.71147 -0.50525,1.21671 -0.50524,0.49493 -1.2167,0.49493 -0.71147,0 -1.21671,-0.49493 -0.49493,-0.50524 -0.49493,-1.21671 0,-0.71146 0.49493,-1.2167 0.50524,-0.50525 1.21671,-0.50525 z"
           style="fill:#ffffff;fill-opacity:1;stroke-width:2.25226688"
           id="path1449"
           inkscape:connector-curvature="0" />
        <path
           d="m 181.55671,226.22651 -0.52586,4.90807 h -12.41453 v -0.38151 h 0.464 q 0.60835,0 0.97955,-0.21653 0.26809,-0.14435 0.41245,-0.49493 0.11342,-0.24747 0.11342,-1.2992 v -9.19747 q 0,-1.07235 -0.11342,-1.34044 -0.11343,-0.26808 -0.464,-0.46399 -0.34027,-0.20622 -0.928,-0.20622 h -0.464 v -0.38151 h 7.4549 v 0.38151 h -0.60835 q -0.60835,0 -0.97955,0.21653 -0.26809,0.14435 -0.42275,0.49493 -0.11343,0.24746 -0.11343,1.29919 v 8.90877 q 0,1.07235 0.12374,1.37137 0.12373,0.28871 0.48462,0.43306 0.25777,0.0928 1.24764,0.0928 h 1.16515 q 1.11359,0 1.85599,-0.39182 0.7424,-0.39182 1.27857,-1.23733 0.54649,-0.8455 1.03111,-2.49528 z"
           style="fill:#ffffff;fill-opacity:1;stroke-width:2.25226688"
           id="path1451"
           inkscape:connector-curvature="0" />
        <path
           d="m 193.67543,217.15278 v 3.78416 h -0.3712 q -0.32995,-1.30951 -0.73208,-1.87662 -0.40214,-0.57742 -1.10329,-0.91768 -0.39182,-0.1856 -1.37137,-0.1856 h -1.04142 v 10.78537 q 0,1.07236 0.11342,1.34044 0.12374,0.26809 0.464,0.47431 0.35058,0.19591 0.94862,0.19591 h 0.464 v 0.38151 h -7.32086 v -0.38151 h 0.464 q 0.60835,0 0.97955,-0.21653 0.26809,-0.14435 0.42275,-0.49493 0.11342,-0.24747 0.11342,-1.2992 v -10.78537 h -1.01048 q -1.41262,0 -2.0519,0.59804 -0.89707,0.8352 -1.13422,2.38186 h -0.39182 v -3.78416 z"
           style="fill:#ffffff;fill-opacity:1;stroke-width:2.25226688"
           id="path1453"
           inkscape:connector-curvature="0" />
        <path
           d="m 194.71706,231.13458 v -0.38151 h 0.464 q 0.60835,0 0.92799,-0.1856 0.32996,-0.19591 0.48462,-0.52586 0.0928,-0.21653 0.0928,-1.2992 v -9.19747 q 0,-1.07235 -0.11342,-1.34044 -0.11342,-0.26808 -0.464,-0.46399 -0.34026,-0.20622 -0.92799,-0.20622 h -0.464 v -0.38151 h 6.25882 q 2.50559,0 4.03162,0.68053 1.86631,0.83519 2.82524,2.52621 0.96924,1.69101 0.96924,3.8254 0,1.47449 -0.47431,2.72213 -0.47431,1.23732 -1.22702,2.0519 -0.75271,0.80426 -1.74257,1.29919 -0.97955,0.48462 -2.40248,0.75271 -0.62897,0.12373 -1.97972,0.12373 z m 5.33082,-13.18785 v 10.90911 q 0,0.86613 0.0825,1.06204 0.0825,0.19591 0.2784,0.29902 0.2784,0.15466 0.80426,0.15466 1.72195,0 2.62932,-1.17546 1.23733,-1.5879 1.23733,-4.92869 0,-2.69119 -0.84551,-4.29971 -0.67022,-1.25795 -1.72194,-1.71164 -0.7424,-0.31964 -2.46435,-0.30933 z"
           style="fill:#ffffff;fill-opacity:1;stroke-width:2.25226688"
           id="path1455"
           inkscape:connector-curvature="0" />
        <path
           d="m 212.32471,227.95877 q 0.72177,0 1.2167,0.50525 0.50525,0.50524 0.50525,1.2167 0,0.71147 -0.50525,1.21671 -0.50524,0.49493 -1.2167,0.49493 -0.71147,0 -1.21671,-0.49493 -0.49493,-0.50524 -0.49493,-1.21671 0,-0.71146 0.49493,-1.2167 0.50524,-0.50525 1.21671,-0.50525 z"
           style="fill:#ffffff;fill-opacity:1;stroke-width:2.25226688"
           id="path1457"
           inkscape:connector-curvature="0" />
      </g>
      <path
         inkscape:connector-curvature="0"
         id="path925"
         style="fill:#000000;fill-opacity:1;fill-rule:nonzero;stroke:none;stroke-width:2.25226688"
         d="m 135.93021,210.44882 h 2.51898 l 0.0575,-48.94063 h -2.57627 z m 4.39156,0 h 2.74241 l 0.0575,-48.94063 h -2.74241 z m 4.61506,0 h 2.77562 l 0.0575,-48.94063 h -2.7762 z m 4.64819,0 h 3.18042 v -48.94063 h -3.12204 z m 47.61777,-0.19554 h 16.8358 v -30.06511 c 0,-5.95531 -1.6641,-10.75088 -4.99237,-14.37253 -3.32772,-3.62166 -7.82992,-5.48136 -13.40912,-5.48136 -4.40529,0 -8.51562,1.07707 -12.23519,3.32778 l 3.71957,12.13728 c 0.88046,-0.19553 1.76201,-0.29402 2.64248,-0.29402 2.25149,0 4.0135,0.6858 5.28583,1.95805 1.27254,1.27175 1.95754,3.03355 1.95754,5.28526 z m -30.34202,0 h 16.8353 V 180.106 c 0,-5.97077 -1.6649,-10.76712 -4.99189,-14.38877 -3.32821,-3.62166 -7.73278,-5.48058 -13.21407,-5.48058 -2.93672,0 -5.77474,0.58732 -8.61354,1.66339 v 13.70377 c 0.88047,-0.0985 1.76201,-0.19625 2.54486,-0.19625 2.34911,0 4.11113,0.68508 5.38266,1.94159 1.27333,1.27253 1.86043,3.03455 1.86043,5.26929 z M 41.671469,160.13874 c -2.055175,0 -3.915603,0.19554 -5.676828,0.68508 v 15.85584 c 1.468072,-0.68508 3.229872,-1.07607 5.382876,-1.07607 3.034342,0 5.383742,0.97917 7.14547,2.83809 1.762022,1.85964 2.642772,4.50241 2.642772,7.83069 v 23.49101 c 5.187918,-1.85971 9.299268,-4.89405 12.430507,-9.20064 3.13297,-4.30667 4.69845,-9.20093 4.69845,-14.68222 0,-7.24259 -2.64256,-13.3112 -7.829689,-18.20517 -5.188138,-4.89427 -11.452349,-7.34129 -18.793558,-7.34129 z m -9.396174,1.85971 c -0.943084,0.33787 -1.854822,0.71528 -2.732487,1.13157 -0.226444,3.49075 -0.371655,7.00975 -0.460796,10.52717 -0.09633,3.78627 -0.13227,7.58822 -0.135866,11.36586 0.0072,2.12138 0.319177,3.98842 0.894416,5.6122 0.588034,1.6636 1.457719,3.07107 2.564199,4.23916 1.085347,1.14602 2.467009,2.07904 3.991152,2.73105 1.533271,0.65633 3.205501,1.03014 4.860986,1.05393 h 0.003 c 1.376558,0.0288 2.626098,-0.0503 3.761189,-0.23291 0.837409,-0.13802 1.61163,-0.33787 2.32704,-0.6096 v -2.8332 c -1.468141,0.68508 -3.229869,1.07679 -5.38367,1.07679 -3.034335,0 -5.382948,-0.88126 -7.144962,-2.74097 -1.7618,-1.85964 -2.643275,-4.50212 -2.643275,-7.92752 l 0.09848,-23.3936 z m -4.675587,2.14877 c -0.733962,0.42269 -1.440466,0.87644 -2.122167,1.36232 -0.334275,2.83953 -0.556403,5.75447 -0.698739,8.70053 -0.176842,3.67111 -0.230039,7.37694 -0.22285,11.03821 0.01437,2.63745 0.432041,4.95206 1.172689,6.97222 0.782055,2.13503 1.932172,3.93939 3.359195,5.44527 1.380082,1.45801 3.225559,2.71179 5.212508,3.61461 1.990471,0.90506 4.106744,1.45492 6.024753,1.50387 h 0.003 c 1.73894,0.0503 3.316851,-7.9e-4 4.750491,-0.20056 0.802111,-0.11143 1.55757,-0.26958 2.269461,-0.48524 v -2.29908 c -0.641231,0.20272 -1.31567,0.36015 -2.025772,0.47661 -1.241618,0.20416 -2.600928,0.28252 -4.091858,0.25592 -1.909315,-0.0288 -3.823803,-0.45361 -5.569786,-1.2013 -1.756984,-0.75194 -3.35438,-1.83146 -4.615273,-3.16287 -1.288857,-1.36082 -2.29743,-2.99049 -2.976038,-4.90771 -0.641231,-1.81018 -0.987796,-3.8826 -0.996421,-6.22891 v -0.005 c 0.0051,-3.80626 0.04313,-7.62855 0.135863,-11.41324 0.08123,-3.19917 0.206317,-6.36485 0.390345,-9.46691 z m -4.187473,3.00637 c -0.802902,0.7124 -1.561955,1.47728 -2.274282,2.29664 -0.273169,1.75188 -0.49386,3.53697 -0.66567,5.33781 -0.345057,3.62287 -0.496017,7.32446 -0.477327,10.9697 0.162462,3.47788 0.795282,6.35191 1.809387,8.79893 1.00656,2.4292 2.396059,4.44634 4.078208,6.2218 1.67345,1.76633 3.976199,3.33993 6.41812,4.49306 2.446232,1.15515 5.012661,1.88401 7.202186,1.95884 h 0.0026 c 2.09269,0.0748 3.996179,0.0431 5.734399,-0.16749 0.734682,-0.0899 1.437161,-0.21279 2.107941,-0.37597 v -2.64176 c -0.64411,0.16893 -1.314961,0.29976 -2.012829,0.39681 -1.534781,0.21422 -3.214131,0.26742 -5.058095,0.21494 -2.18169,-0.0575 -4.549566,-0.66495 -6.749301,-1.66489 -2.198439,-0.99995 -4.250878,-2.39728 -5.79932,-4.03278 -1.602282,-1.69077 -2.890565,-3.70943 -3.763915,-6.09326 -0.809516,-2.20836 -1.263697,-4.73576 -1.281742,-7.60979 v -0.005 c -0.0072,-3.71223 0.04313,-7.45537 0.222848,-11.13029 0.113583,-2.34933 0.276048,-4.67918 0.506084,-6.96791 z m -4.586878,5.40071 c -2.517473,3.9711 -3.777144,8.42232 -3.777144,13.42485 0,7.24259 2.642558,13.31148 7.829976,18.20546 5.188138,4.89397 11.452275,7.341 18.79328,7.341 2.05545,0 3.91509,-0.19625 5.677109,-0.68508 v -2.22792 c -0.607449,0.13227 -1.233789,0.23579 -1.87919,0.31559 -1.823119,0.22356 -3.824311,0.25304 -6.029071,0.17468 -2.45364,-0.0848 -5.281017,-0.87824 -7.940034,-2.13482 -2.640473,-1.24673 -5.142704,-2.96101 -6.976536,-4.89707 -1.836058,-1.9367 -3.352078,-4.13924 -4.452665,-6.79466 -1.093539,-2.63896 -1.774955,-5.72305 -1.948921,-9.43722 v -0.0359 c -0.02156,-3.72079 0.132993,-7.49692 0.484518,-11.18982 0.0647,-0.68867 0.138023,-1.37577 0.218535,-2.05747 z m -7.789862,23.60408 H -4.9197639 l -9.3960981,14.0949 H 11.035495 Z M -8.5406269,161.31273 H -31.542942 v 14.09483 h 13.605354 z m 19.4777809,0 h -0.24585 l -32.811334,48.94055 h 3.203992 l 29.853121,-44.53605 z m -2.5023039,0 h -2.692948 l -32.8098251,48.94055 h 2.692231 z m -4.948754,0 H 0.83139106 L -31.979943,210.25328 h 2.655496 z m -4.91123,0 h -2.51546 l -29.8530511,44.53598 v 3.74465 z M 101.08448,160.13874 c -2.055174,0 -3.914884,0.19554 -5.676894,0.68508 v 15.85584 c 1.46785,-0.68508 3.22987,-1.07607 5.383744,-1.07607 3.03434,0 5.38338,0.97917 7.1454,2.83809 1.76129,1.85964 2.64255,4.50241 2.64255,7.83069 v 23.49101 c 5.18814,-1.85971 9.29848,-4.89405 12.43073,-9.20064 3.13196,-4.30667 4.69765,-9.20093 4.69765,-14.68222 0,-7.24259 -2.64248,-13.3112 -7.8299,-18.20517 -5.18785,-4.89427 -11.45206,-7.34129 -18.79328,-7.34129 z m -9.396174,1.85971 c -0.94337,0.33787 -1.8541,0.71528 -2.73176,1.13157 -0.22645,3.49075 -0.37166,7.00975 -0.46152,10.52717 -0.0963,3.78627 -0.13155,7.58822 -0.13586,11.36586 0.007,2.12138 0.31917,3.98842 0.89448,5.6122 0.58876,1.6636 1.45844,3.07107 2.56492,4.23916 1.08542,1.14602 2.46701,2.07904 3.99036,2.73105 1.53407,0.65633 3.20529,1.03014 4.861564,1.05393 h 0.003 c 1.37656,0.0288 2.62531,-0.0503 3.7604,-0.23291 0.83813,-0.13802 1.61163,-0.33787 2.32755,-0.6096 v -2.8332 c -1.46858,0.68508 -3.22987,1.07679 -5.38346,1.07679 -3.034334,0 -5.383664,-0.88126 -7.145684,-2.74097 -1.76202,-1.85964 -2.64248,-4.50212 -2.64248,-7.92752 l 0.0978,-23.3936 z m -4.67486,2.14877 c -0.73389,0.42269 -1.44148,0.87644 -2.1221,1.36232 -0.33499,2.83953 -0.55712,5.75447 -0.69874,8.70053 -0.17684,3.67111 -0.23004,7.37694 -0.22357,11.03821 0.0144,2.63745 0.43276,4.95206 1.1724,6.97222 0.78285,2.13503 1.93246,3.93939 3.36021,5.44527 1.38008,1.45801 3.22555,2.71179 5.21171,3.61461 1.99055,0.90506 4.10682,1.45492 6.02555,1.50387 h 0.003 c 1.738154,0.0503 3.316784,-7.9e-4 4.749414,-0.20056 0.8024,-0.11143 1.55786,-0.26958 2.27025,-0.48524 v -2.29908 c -0.64195,0.20272 -1.31624,0.36015 -2.02576,0.47661 -1.24142,0.20416 -2.60094,0.28252 -4.09237,0.25592 -1.909394,-0.0288 -3.823804,-0.45361 -5.569074,-1.2013 -1.75698,-0.75194 -3.35438,-1.83146 -4.61606,-3.16287 -1.28799,-1.36082 -2.29736,-2.99049 -2.97525,-4.90771 -0.64123,-1.81018 -0.98772,-3.8826 -0.99714,-6.22891 v -0.005 c 0.005,-3.80626 0.0431,-7.62855 0.13587,-11.41324 0.0812,-3.19917 0.20631,-6.36485 0.39106,-9.46691 z m -4.1882,3.00637 c -0.8029,0.7124 -1.56145,1.47728 -2.27456,2.29664 -0.27245,1.75188 -0.49387,3.53697 -0.66496,5.33781 -0.34505,3.62287 -0.49673,7.32446 -0.47804,10.9697 0.16246,3.47788 0.79506,6.35191 1.80946,8.79893 1.00706,2.4292 2.39677,4.44634 4.07813,6.2218 1.67353,1.76633 3.97599,3.33993 6.41891,4.49306 2.44624,1.15515 5.01266,1.88401 7.20147,1.95884 h 0.003 c 2.093484,0.0748 3.997044,0.0431 5.735194,-0.16749 0.73397,-0.0899 1.43644,-0.21279 2.10772,-0.37597 v -2.64176 c -0.64482,0.16893 -1.31466,0.29976 -2.01283,0.39681 -1.53485,0.21422 -3.21391,0.26742 -5.057804,0.21494 -2.18198,-0.0575 -4.55065,-0.66495 -6.74959,-1.66489 -2.19902,-0.99995 -4.25138,-2.39728 -5.7999,-4.03278 -1.60142,-1.69077 -2.88977,-3.70943 -3.76312,-6.09326 -0.80952,-2.20836 -1.2637,-4.73576 -1.28246,-7.60979 v -0.005 c -0.007,-3.71223 0.0431,-7.45537 0.22357,-11.13029 0.11286,-2.34933 0.27604,-4.67918 0.50536,-6.96791 z m -4.58716,5.40071 c -2.51747,3.9711 -3.77686,8.42232 -3.77686,13.42485 0,7.24259 2.64328,13.31148 7.8307,18.20546 5.18742,4.89397 11.45234,7.341 18.792554,7.341 2.05589,0 3.91582,-0.19625 5.67762,-0.68508 v -2.22792 c -0.60744,0.13227 -1.23351,0.23579 -1.8797,0.31559 -1.8224,0.22356 -3.82459,0.25304 -6.029354,0.17468 -2.45335,-0.0848 -5.27994,-0.87824 -7.93975,-2.13482 -2.64047,-1.24673 -5.14198,-2.96101 -6.97653,-4.89707 -1.83534,-1.9367 -3.35208,-4.13924 -4.45274,-6.79466 -1.09347,-2.63896 -1.77495,-5.72305 -1.94892,-9.43722 v -0.0359 c -0.0216,-3.72079 0.13371,-7.49692 0.48524,-11.18982 0.0647,-0.68867 0.13802,-1.37577 0.21781,-2.05747" />
    </g>
  </g>
</svg>
